Coordinates
version=1
nRows=18
nColumns=22
inDegrees=yes

Units are S.I. units (second, meters, Newtons, ...)
If the header above contains a line with 'inDegrees', this indicates whether rotational values are in degrees (yes) or radians (no).

endheader
time	pelvis_tilt	pelvis_list	pelvis_rotation	pelvis_tx	pelvis_ty	pelvis_tz	hip_flexion_r	hip_adduction_r	hip_rotation_r	knee_angle_r	ankle_angle_r	subtalar_angle_r	hip_flexion_l	hip_adduction_l	hip_rotation_l	knee_angle_l	ankle_angle_l	subtalar_angle_l	lumbar_extension	lumbar_bending	lumbar_rotation
      4.03000000	     -1.19401465	     -0.85088204	     -1.74537697	     -0.67427389	      0.91754861	      0.05789098	      0.75077022	      2.34339812	      0.94494035	    -48.08597590	     -9.50706802	     16.09288561	     18.50095414	      1.19804738	    -10.53338641	    -22.18688958	     10.12724113	      3.11078618	     -5.12854202	     -4.77105223	      2.81819802
      4.04000000	     -1.41152342	     -0.92220136	     -1.78418279	     -0.68260053	      0.91646677	      0.05843234	     -0.10163258	      2.84854035	      1.23169258	    -46.33222644	     -9.32913963	     15.78992126	     19.31328204	      1.03630134	    -10.58578531	    -22.22938601	      9.91898256	      3.40620674	     -5.02939202	     -4.77833460	      3.07839675
      4.05000000	     -1.61379545	     -0.95056771	     -1.84705580	     -0.69108207	      0.91533163	      0.05892563	     -0.95049224	      3.27247959	      1.56606940	    -44.38407955	     -8.82287585	     15.23614032	     20.08665653	      0.93123522	    -10.62801522	    -22.20370541	      9.68597589	      3.71673928	     -4.96394771	     -4.82095418	      3.35106255
      4.06000000	     -1.80065552	     -0.93397922	     -1.93451530	     -0.69972843	      0.91411299	      0.05937826	     -1.77977373	      3.60629442	      1.93770738	    -42.31291226	     -7.94614088	     14.51714806	     20.84620615	      0.87158208	    -10.71755930	    -22.16380276	      9.49468547	      3.93999888	     -4.93590059	     -4.89943318	      3.59486817
      4.07000000	     -1.98017511	     -0.87234443	     -2.03400670	     -0.70853996	      0.91285018	      0.05977628	     -2.55078916	      3.83847814	      2.27727574	    -40.20819021	     -6.78977580	     13.43043938	     21.56157741	      0.87449093	    -10.77978216	    -22.01964003	      9.23795335	      4.19144793	     -4.93556883	     -5.01781022	      3.86409584
      4.08000000	     -2.14657478	     -0.78737177	     -2.15799740	     -0.71750666	      0.91151642	      0.06017675	     -3.24443159	      3.99749348	      2.59999579	    -38.17374649	     -5.29013643	     12.29444647	     22.27257342	      0.88791749	    -10.90485660	    -21.88047603	      9.07166718	      4.39256772	     -4.96906802	     -5.15389006	      4.10781309
      4.09000000	     -2.29924192	     -0.70929105	     -2.28624933	     -0.72659825	      0.91019326	      0.06053587	     -3.83424450	      4.10931109	      2.83256596	    -36.28776841	     -3.55486191	     10.97889760	     22.93901057	      0.89925933	    -11.02420486	    -21.66213052	      8.87133417	      4.60119802	     -5.03456856	     -5.26866631	      4.36421838
      4.10000000	     -2.42685256	     -0.66224833	     -2.42339193	     -0.73578378	      0.90890129	      0.06089977	     -4.31091235	      4.21314648	      2.99166711	    -34.61866959	     -1.60992827	      9.66224496	     23.56572941	      0.86761338	    -11.18507908	    -21.41444180	      8.72156761	      4.81176332	     -5.14423101	     -5.34084175	      4.60098965
      4.11000000	     -2.52571261	     -0.64844419	     -2.56408309	     -0.74501743	      0.90767569	      0.06126024	     -4.66691256	      4.32129645	      3.09130488	    -33.19346190	      0.44176108	      8.38254338	     24.14904491	      0.78831697	    -11.40134067	    -21.15087011	      8.64493044	      5.03781990	     -5.29667401	     -5.36801541	      4.82558590
      4.12000000	     -2.59933494	     -0.68590783	     -2.70380167	     -0.75425640	      0.90654303	      0.06161978	     -4.89915704	      4.46257833	      3.13879420	    -32.00476513	      2.49730351	      7.17681096	     24.68465660	      0.64313195	    -11.67057993	    -20.86857592	      8.62564311	      5.27460014	     -5.48255105	     -5.33137416	      5.03576592
      4.13000000	     -2.65639120	     -0.76957167	     -2.84839767	     -0.76345131	      0.90551193	      0.06198491	     -5.00737981	      4.63997485	      3.16385607	    -31.03156602	      4.47132282	      6.06452653	     25.17560802	      0.43360056	    -12.00749763	    -20.57208963	      8.65925079	      5.51670447	     -5.68454844	     -5.23813606	      5.23435325
      4.14000000	     -2.70843099	     -0.88673644	     -3.00087610	     -0.77255814	      0.90458333	      0.06235882	     -4.99693994	      4.84750923	      3.19597613	    -30.24152872	      6.29956809	      5.05750540	     25.62918954	      0.17111374	    -12.42416983	    -20.26662700	      8.72772100	      5.75473991	     -5.88286466	     -5.10465658	      5.41719493
      4.15000000	     -2.75962201	     -1.03468577	     -3.15119071	     -0.78155291	      0.90375602	      0.06271803	     -4.88016890	      5.08282185	      3.21855945	    -29.60560231	      7.94410656	      4.13711583	     26.05089045	     -0.13376603	    -12.89090427	    -19.96731984	      8.79626149	      5.98146615	     -6.07245078	     -4.93425969	      5.59153097
      4.16000000	     -2.82185087	     -1.18928752	     -3.30024300	     -0.79038376	      0.90302851	      0.06306977	     -4.67301554	      5.32445438	      3.25206191	    -29.07838932	      9.38962878	      3.30789133	     26.44897272	     -0.45768637	    -13.41966174	    -19.68653706	      8.83884435	      6.19320349	     -6.23144591	     -4.75819906	      5.73816347
      4.17000000	     -2.89460668	     -1.34129143	     -3.43720701	     -0.79901842	      0.90240113	      0.06339566	     -4.39974424	      5.56085792	      3.27196444	    -28.62617600	     10.63748014	      2.56087445	     26.82758123	     -0.78407994	    -13.98299582	    -19.45016978	      8.83716748	      6.39582048	     -6.35920879	     -4.58689497	      5.85425833
      4.18000000	     -2.97627608	     -1.48274643	     -3.55310106	     -0.80742015	      0.90189220	      0.06371506	     -4.08859563	      5.78586864	      3.26911657	    -28.20881536	     11.69701694	      1.87934839	     27.19051286	     -1.10406737	    -14.55963671	    -19.29015228	      8.76755893	      6.60195598	     -6.45383638	     -4.43780936	      5.92044393
      4.19000000	     -3.05898352	     -1.60813691	     -3.63339997	     -0.81555856	      0.90151841	      0.06398396	     -3.76962851	      5.99171080	      3.23287620	    -27.79665590	     12.58713705	      1.25345230	     27.53792304	     -1.40248667	    -15.11020753	    -19.24210274	      8.62798222	      6.82277823	     -6.52694659	     -4.31080599	      5.92712454
      4.20000000	     -3.12527093	     -1.71731462	     -3.66706601	     -0.82340549	      0.90130799	      0.06420184	     -3.48155566	      6.17737523	      3.14994498	    -27.36032446	     13.35561204	      0.71072422	     27.85629038	     -1.67073804	    -15.56608943	    -19.33326842	      8.43626227	      7.05290857	     -6.59700119	     -4.21458818	      5.89403925
